<svg width="41" height="42" viewBox="0 0 41 42" fill="none" xmlns="http://www.w3.org/2000/svg">
<g clip-path="url(#clip0_293_11)">
<path d="M20.4167 3C11.0251 3 3.40283 10.7529 3.40283 20.3056C3.40283 29.8582 11.0251 37.6111 20.4167 37.6111C29.8084 37.6111 37.4306 29.8582 37.4306 20.3056C37.4306 10.7529 29.8084 3 20.4167 3ZM12.0289 31.1734C12.7605 29.6159 17.2181 28.0931 20.4167 28.0931C23.6153 28.0931 28.09 29.6159 28.8046 31.1734C26.4907 33.0424 23.5813 34.15 20.4167 34.15C17.2521 34.15 14.3428 33.0424 12.0289 31.1734ZM31.2376 28.6641C28.8046 25.653 22.9007 24.6319 20.4167 24.6319C17.9327 24.6319 12.0289 25.653 9.59589 28.6641C7.86047 26.3452 6.80561 23.4552 6.80561 20.3056C6.80561 12.6738 12.9136 6.46111 20.4167 6.46111C27.9198 6.46111 34.0278 12.6738 34.0278 20.3056C34.0278 23.4552 32.973 26.3452 31.2376 28.6641ZM20.4167 9.92222C17.116 9.92222 14.4619 12.6219 14.4619 15.9792C14.4619 19.3364 17.116 22.0361 20.4167 22.0361C23.7174 22.0361 26.3716 19.3364 26.3716 15.9792C26.3716 12.6219 23.7174 9.92222 20.4167 9.92222ZM20.4167 18.575C19.0046 18.575 17.8646 17.4155 17.8646 15.9792C17.8646 14.5428 19.0046 13.3833 20.4167 13.3833C21.8289 13.3833 22.9688 14.5428 22.9688 15.9792C22.9688 17.4155 21.8289 18.575 20.4167 18.575Z" fill="#EEEEEE"/>
</g>
<defs>
<clipPath id="clip0_293_11">
<rect width="40.8333" height="41.5333" rx="10" fill="white"/>
</clipPath>
</defs>
</svg>
