<svg width="38" height="38" viewBox="0 0 38 38" fill="none" xmlns="http://www.w3.org/2000/svg">
<g clip-path="url(#clip0_293_40)">
<path fill-rule="evenodd" clip-rule="evenodd" d="M37.9999 19.4222C37.9999 17.8599 37.8706 16.7199 37.5907 15.5378H19.3877V22.5888H30.0724C29.8571 24.3411 28.6938 26.9799 26.1087 28.7532L26.0725 28.9893L31.8279 33.3588L32.2266 33.3978C35.8887 30.0834 37.9999 25.2067 37.9999 19.4222Z" fill="#4285F4"/>
<path fill-rule="evenodd" clip-rule="evenodd" d="M19.3877 38C24.6223 38 29.0167 36.3111 32.2267 33.3978L26.1087 28.7532C24.4715 29.8721 22.2742 30.6533 19.3877 30.6533C14.2607 30.6533 9.90932 27.3389 8.35811 22.7578L8.1308 22.7768L2.14616 27.3157L2.06787 27.5289C5.25603 33.7355 11.8049 38 19.3877 38Z" fill="#34A853"/>
<path fill-rule="evenodd" clip-rule="evenodd" d="M8.35805 22.7578C7.94882 21.5757 7.71186 20.3089 7.71186 19.0001C7.71186 17.6911 7.9487 16.4245 8.33653 15.2423L8.32571 14.9904L2.26616 10.3786L2.06793 10.471C0.753911 13.0466 0 15.9388 0 18.9999C0 22.0611 0.754028 24.9531 2.06793 27.5287L8.35817 22.7577" fill="#FBBC04"/>
<path fill-rule="evenodd" clip-rule="evenodd" d="M19.3877 7.34662C23.0283 7.34662 25.4839 8.88779 26.8843 10.1757L32.3559 4.94008C28.9955 1.87895 24.6223 0.000114441 19.3877 0.000114441C11.8049 0.000114441 5.25615 4.26452 2.06787 10.4711L8.33659 15.2424C9.90932 10.6613 14.2607 7.34674 19.3877 7.34674" fill="#EA4335"/>
</g>
<defs>
<clipPath id="clip0_293_40">
<rect width="38" height="38" fill="white"/>
</clipPath>
</defs>
</svg>
