<svg width="41" height="42" viewBox="0 0 41 42" fill="none" xmlns="http://www.w3.org/2000/svg">
<g clip-path="url(#clip0_293_17)">
<path d="M30.6251 14.1139H28.9237V10.6528C28.9237 5.87644 25.1126 2 20.4168 2C15.7209 2 11.9098 5.87644 11.9098 10.6528V14.1139H10.2084C8.33691 14.1139 6.80566 15.6714 6.80566 17.575V34.8806C6.80566 36.7842 8.33691 38.3417 10.2084 38.3417H30.6251C32.4966 38.3417 34.0279 36.7842 34.0279 34.8806V17.575C34.0279 15.6714 32.4966 14.1139 30.6251 14.1139ZM15.3126 10.6528C15.3126 7.78006 17.5925 5.46111 20.4168 5.46111C23.2411 5.46111 25.5209 7.78006 25.5209 10.6528V14.1139H15.3126V10.6528ZM30.6251 34.8806H10.2084V17.575H30.6251V34.8806ZM20.4168 29.6889C22.2883 29.6889 23.8196 28.1314 23.8196 26.2278C23.8196 24.3242 22.2883 22.7667 20.4168 22.7667C18.5452 22.7667 17.014 24.3242 17.014 26.2278C17.014 28.1314 18.5452 29.6889 20.4168 29.6889Z" fill="#EEEEEE"/>
</g>
<defs>
<clipPath id="clip0_293_17">
<rect width="40.8333" height="41.5333" rx="10" fill="white"/>
</clipPath>
</defs>
</svg>
